<svg width="332" height="332" viewBox="0 0 332 332" fill="none" xmlns="http://www.w3.org/2000/svg">
<g clip-path="url(#clip0_103_96)">
<rect width="332" height="332" rx="166" fill="black"/>
<path d="M415.208 54.5607C415.382 46.0621 413.241 37.6766 409.014 30.3043C404.567 23.0703 398.274 17.1539 390.784 13.165C323.342 -24.1165 255.868 -61.3785 188.361 -98.621C180.223 -103.527 170.887 -106.081 161.388 -105.998C151.888 -105.915 142.598 -103.2 134.546 -98.153C107.707 -82.9635 -26.6246 -9.14153 -66.669 13.1065C-74.2847 16.9442 -80.6421 22.8869 -84.9881 30.2304C-89.334 37.5739 -91.4864 46.0107 -91.1904 54.5412V279.536C-91.3871 287.845 -89.3704 296.055 -85.3473 303.325C-80.8774 310.769 -74.4496 316.84 -66.7664 320.874C-26.722 343.122 107.629 416.944 134.468 432.133C142.516 437.186 151.805 439.908 161.304 439.998C170.803 440.087 180.142 437.54 188.283 432.64C255.673 395.32 323.102 358.058 390.569 320.854C398.254 316.815 404.687 310.746 409.17 303.305C413.193 296.036 415.21 287.825 415.013 279.517V54.5607" fill="#659AD2"/>
<path d="M406.495 306.797C407.518 305.671 408.475 304.487 409.359 303.249C413.384 295.982 415.401 287.773 415.204 279.467V54.5717C415.379 46.0754 413.237 37.6921 409.009 30.3218C408.307 29.1717 407.275 28.275 406.476 27.2029L162 167.01L406.495 306.797Z" fill="#00599C"/>
<path d="M405.986 306.83L162 167L-81.9854 306.83C-77.8774 312.651 -72.4974 317.453 -66.2563 320.869C-26.2822 343.118 107.833 416.943 134.625 432.133C142.659 437.186 151.931 439.908 161.414 439.998C170.896 440.087 180.218 437.54 188.345 432.64C255.616 395.318 322.927 358.055 390.276 320.85C396.508 317.436 401.881 312.641 405.986 306.83Z" fill="#004482"/>
<path d="M197.063 186.946C192.725 194.661 185.958 200.725 177.816 204.195C169.674 207.665 160.613 208.346 152.043 206.132C143.474 203.918 135.877 198.934 130.434 191.954C124.992 184.974 122.009 176.391 121.951 167.541C121.892 158.69 124.761 150.069 130.111 143.018C135.461 135.967 142.991 130.882 151.531 128.556C160.07 126.229 169.139 126.79 177.327 130.152C185.514 133.514 192.36 139.488 196.8 147.145L232.004 126.957C223.068 111.622 209.338 99.6504 192.929 92.8862C176.52 86.1219 158.342 84.9405 141.195 89.5239C124.049 94.1073 108.884 104.201 98.0388 118.251C87.1933 132.3 81.2679 149.526 81.1754 167.274C81.1505 181.349 84.846 195.181 91.8877 207.368C99.0113 219.68 109.251 229.899 121.577 236.998C133.903 244.097 147.881 247.826 162.106 247.809C176.33 247.792 190.299 244.031 202.609 236.903C214.918 229.774 225.134 219.531 232.228 207.202L197.063 186.946Z" fill="white"/>
<path d="M240.652 162.775H231.634V153.806H222.626V162.775H213.608V171.764H222.626V180.723H231.634V171.764H240.652V162.775ZM274.474 162.775H265.456V153.806H256.438V162.775H247.42V171.764H256.438V180.723H265.456V171.764H274.474V162.775Z" fill="white"/>
</g>
<defs>
<clipPath id="clip0_103_96">
<rect width="332" height="332" rx="166" fill="white"/>
</clipPath>
</defs>
</svg>
