<svg width="200" height="200" viewBox="0 0 200 200" fill="none" xmlns="http://www.w3.org/2000/svg">
<g clip-path="url(#clip0_413_26)">
<path d="M185.572 149.719C186.963 147.308 187.823 144.594 187.823 142.152V57.4687C187.823 55.0344 186.964 52.3172 185.572 49.9062L99.1344 99.8125L185.572 149.719Z" fill="#00599C"/>
<path d="M106.813 197.791L180.145 155.456C182.258 154.236 184.18 152.13 185.572 149.719L99.1344 99.8125L12.6875 149.719C14.0781 152.13 16.0016 154.234 18.1141 155.456L91.4469 197.791C95.6703 200.231 102.588 200.231 106.809 197.791H106.813Z" fill="#004482"/>
<path d="M185.572 49.908C184.18 47.4923 182.258 45.3861 180.145 44.172L106.811 1.8314C102.588 -0.610791 95.6719 -0.610791 91.4484 1.8314L18.1156 44.172C13.8906 46.6064 10.4375 52.5939 10.4375 57.4689V142.15C10.4375 144.591 11.2969 147.306 12.6891 149.717L99.1328 99.8126L185.572 49.908Z" fill="#659AD2"/>
<path d="M99.1328 40.6797C66.5281 40.6797 40.0031 67.2062 40.0031 99.8109C40.0031 132.416 66.5281 158.942 99.1328 158.942C120.172 158.942 139.795 147.619 150.336 129.395L124.75 114.586C119.469 123.711 109.656 129.375 99.1328 129.375C82.8312 129.375 69.5672 116.112 69.5672 99.8093C69.5672 83.5062 82.8328 70.2437 99.1328 70.2437C109.648 70.2437 119.472 75.914 124.742 85.0328L150.336 70.225C139.789 52 120.172 40.6797 99.1328 40.6797ZM145.125 89.9531V96.5265H138.552V103.094H145.125V109.667H151.692V103.094H158.259V96.5265H151.692V89.9531H145.125ZM169.759 89.9531V96.5265H163.191V103.094H169.759V109.667H176.333V103.094H182.9V96.5265H176.333V89.9531H169.759Z" fill="white"/>
</g>
<defs>
<clipPath id="clip0_413_26">
<rect width="200" height="200" fill="white"/>
</clipPath>
</defs>
</svg>
