<svg width="299" height="299" viewBox="0 0 299 299" fill="none" xmlns="http://www.w3.org/2000/svg">
<rect width="299" height="299" rx="149.5" fill="#1A80DF"/>
<path d="M149.499 49C146.689 49 143.88 49.6166 141.748 50.8531L67.748 93.6983C63.4845 96.1617 60 102.221 60 107.154V192.846C60 195.315 60.8672 198.06 62.2721 200.5L62.2689 200.503C63.6722 202.943 65.6163 205.072 67.748 206.309L141.745 249.148C146.007 251.617 152.987 251.617 157.247 249.148H157.25L231.252 206.309C233.384 205.076 235.323 202.943 236.728 200.503C238.131 198.063 239 195.317 239 192.846V107.152C239 104.69 238.133 101.942 236.728 99.5026V99.4994C235.323 97.0566 233.384 94.9252 231.252 93.6967L157.25 50.8547C155.12 49.6166 152.31 49 149.499 49ZM149.502 90.1613C170.733 90.1613 190.529 101.618 201.171 120.06L175.345 135.048C170.028 125.82 160.114 120.079 149.502 120.079C133.054 120.079 119.668 133.503 119.668 150C119.668 166.498 133.054 179.917 149.502 179.917C160.122 179.917 170.023 174.185 175.353 164.951L201.171 179.936C190.535 198.375 170.733 209.835 149.502 209.835C116.601 209.835 89.8346 182.992 89.8346 149.999C89.8346 117.006 116.601 90.1613 149.502 90.1613ZM195.915 140.025H202.538V146.677H209.165V153.322H202.538V159.974H195.915V153.322H189.281V146.677H195.915V140.025ZM220.772 140.025H227.406V146.677H234.033V153.322H227.406V159.974H220.772V153.322H214.141V146.677H220.772V140.025Z" fill="white"/>
</svg>
