<svg width="332" height="332" viewBox="0 0 332 332" fill="none" xmlns="http://www.w3.org/2000/svg">
<rect width="332" height="332" rx="166" fill="#29B6F6"/>
<g clip-path="url(#clip0_103_72)">
<path d="M117.446 214.554L89.3896 186.497C86.0615 183.085 84 178.262 84 173.548C84 171.365 85.23 167.953 86.1583 166L112.057 112.057L117.446 214.554Z" fill="#006D9E"/>
<path d="M213.481 117.446L185.424 89.3896C182.977 86.9296 177.876 84 173.56 84C169.847 84 166.205 84.7476 163.854 86.1583L112.069 112.057L213.481 117.446ZM150.893 248H218.87V218.87L168.159 202.678L121.763 218.87L150.893 248Z" fill="#7DD7FF"/>
<path d="M112.057 199.446C112.057 208.103 113.142 210.226 117.446 214.554L121.763 218.87H218.87L171.402 164.927L112.057 112.056V199.446Z" fill="white"/>
<path d="M198.373 112.045H112.057L218.87 218.858H248V151.966L213.468 117.434C208.621 112.575 204.317 112.045 198.373 112.045Z" fill="#006D9E"/>
<path opacity="0.2" d="M118.532 215.627C114.216 211.299 113.142 207.03 113.142 199.446V113.129L112.069 112.056V199.446C112.057 207.029 112.057 209.127 118.532 215.626L121.763 218.857L118.532 215.627Z" fill="white"/>
<path opacity="0.2" d="M246.927 150.893V217.785H217.797L218.87 218.87H248V151.966L246.927 150.893Z" fill="#006D9E"/>
<path opacity="0.2" d="M213.481 117.446C208.128 112.093 203.751 112.057 197.301 112.057H112.069L113.142 113.13H197.301C200.52 113.13 208.646 112.587 213.481 117.446Z" fill="white"/>
<path opacity="0.2" d="M246.927 150.893L213.481 117.446L185.424 89.3902C182.977 86.9296 177.876 84 173.56 84C169.846 84 166.205 84.7476 163.854 86.1583L112.069 112.057L86.1706 166C85.2417 167.965 84.0117 171.377 84.0117 173.548C84.0117 178.262 86.0861 183.073 89.4019 186.497L115.252 212.167C115.867 212.926 116.591 213.698 117.447 214.554L118.52 215.627L121.751 218.858L149.808 246.915L150.881 247.988H218.845V218.859H247.975V151.965L246.927 150.893Z" fill="url(#paint0_radial_103_72)"/>
</g>
<defs>
<radialGradient id="paint0_radial_103_72" cx="0" cy="0" r="1" gradientUnits="userSpaceOnUse" gradientTransform="translate(8282.19 8282.49) scale(8198.83 8198.82)">
<stop stop-color="white" stop-opacity="0.1"/>
<stop offset="1" stop-color="white" stop-opacity="0"/>
</radialGradient>
<clipPath id="clip0_103_72">
<rect width="164" height="164" fill="white" transform="translate(84 84)"/>
</clipPath>
</defs>
</svg>
