<svg width="299" height="299" viewBox="0 0 299 299" fill="none" xmlns="http://www.w3.org/2000/svg">
<rect width="299" height="299" rx="149.5" fill="#1A80DF"/>
<path d="M90.1296 90.1379C90.1296 90.1379 128.448 70.991 147.604 61.4062C151.09 59.6877 154.95 58.8666 158.835 59.0176C164.643 59.374 171.552 64.993 171.552 64.993L241 134.445V208.674H208.672V241H133.233L64.9832 172.754C61.2977 168.962 59 163.616 59 158.384C59 155.965 60.365 152.181 61.3963 150.005L90.1296 90.1379ZM95.2787 95.2867V184.667C95.2938 188.784 95.4379 192.431 99.0552 196.102L136.38 233.417H201.089V201.091L95.2787 95.2867ZM186.696 90.1455C179.878 83.3512 172.978 76.6479 165.917 70.1038C163.627 68.0792 161.618 66.555 157.803 66.6005C154.997 66.7067 151.206 68.0792 151.206 68.0792L107.086 90.1379L186.696 90.1455Z" fill="white"/>
</svg>
