<svg width="200" height="200" viewBox="0 0 200 200" fill="none" xmlns="http://www.w3.org/2000/svg">
<g clip-path="url(#clip0_413_25)">
<path d="M40.7883 159.212L6.57266 124.996C2.51406 120.836 0 114.954 0 109.205C0 106.543 1.5 102.382 2.63203 100L34.2156 34.2156L40.7883 159.212Z" fill="#01579B"/>
<path d="M157.903 40.7883L123.688 6.57266C120.703 3.57266 114.483 0 109.219 0C104.691 0 100.25 0.911719 97.3828 2.63203L34.2305 34.2156L157.903 40.7883ZM81.5766 200H164.476V164.476L102.632 144.729L46.0523 164.476L81.5766 200Z" fill="#40C4FF"/>
<path d="M34.2156 140.788C34.2156 151.345 35.539 153.934 40.7882 159.212L46.0523 164.476H164.476L106.587 98.6914L34.2156 34.2148V140.788Z" fill="#29B6F6"/>
<path d="M139.48 34.2008H34.2156L164.476 164.461H200V82.8852L157.888 40.7735C151.977 34.8477 146.728 34.2008 139.48 34.2008Z" fill="#01579B"/>
<path opacity="0.2" d="M42.1117 160.52C36.8476 155.242 35.539 150.037 35.539 140.788V35.5234L34.2304 34.2148V140.787C34.2148 150.036 34.2148 152.595 42.1117 160.52L46.0523 164.46L42.1117 160.52Z" fill="white"/>
<path opacity="0.2" d="M198.691 81.5765V163.152H163.167L164.476 164.476H200V82.8851L198.691 81.5765Z" fill="#263238"/>
<path opacity="0.2" d="M157.903 40.7883C151.375 34.2594 146.037 34.2156 138.171 34.2156H34.2305L35.5391 35.5242H138.171C142.097 35.5242 152.007 34.8625 157.903 40.7883Z" fill="white"/>
<path opacity="0.2" d="M198.691 81.5766L157.903 40.7875L123.687 6.57344C120.703 3.57266 114.483 0 109.219 0C104.691 0 100.25 0.911719 97.3828 2.63203L34.2304 34.2156L2.64685 100C1.51404 102.397 0.0140381 106.558 0.0140381 109.205C0.0140381 114.954 2.54373 120.82 6.58748 124.996L38.1117 156.301C38.8617 157.227 39.7445 158.168 40.7883 159.212L42.0968 160.52L46.0375 164.461L80.2531 198.677L81.5617 199.985H164.445V164.462H199.97V82.8844L198.691 81.5766Z" fill="url(#paint0_radial_413_25)"/>
</g>
<defs>
<radialGradient id="paint0_radial_413_25" cx="0" cy="0" r="1" gradientUnits="userSpaceOnUse" gradientTransform="translate(9997.79 9998.16) scale(9998.57 9998.56)">
<stop stop-color="white" stop-opacity="0.1"/>
<stop offset="1" stop-color="white" stop-opacity="0"/>
</radialGradient>
<clipPath id="clip0_413_25">
<rect width="200" height="200" fill="white"/>
</clipPath>
</defs>
</svg>
