<svg width="332" height="332" viewBox="0 0 332 332" fill="none" xmlns="http://www.w3.org/2000/svg">
<rect width="332" height="332" rx="166" fill="#F7DF1E"/>
<path d="M87.0009 201.985L105.43 190.831C108.986 197.135 112.22 202.469 119.979 202.469C127.415 202.469 132.105 199.561 132.105 188.245V111.294H154.736V188.565C154.736 212.006 140.996 222.676 120.949 222.676C102.844 222.676 92.335 213.299 87 201.983M167.029 199.56L185.456 188.891C190.308 196.813 196.613 202.632 207.766 202.632C217.144 202.632 223.124 197.943 223.124 191.477C223.124 183.718 216.981 180.969 206.634 176.444L200.978 174.017C184.649 167.067 173.818 158.337 173.818 139.908C173.818 122.933 186.751 110 206.959 110C221.347 110 231.693 115.012 239.128 128.106L221.506 139.424C217.626 132.472 213.425 129.725 206.958 129.725C200.329 129.725 196.126 133.928 196.126 139.424C196.126 146.213 200.329 148.963 210.028 153.166L215.686 155.59C234.924 163.836 245.755 172.241 245.755 191.154C245.755 211.525 229.751 222.678 208.25 222.678C187.235 222.678 173.656 212.656 167.028 199.561" fill="black"/>
</svg>
