<svg width="200" height="200" viewBox="0 0 200 200" fill="none" xmlns="http://www.w3.org/2000/svg">
<path d="M0 100C0 129.052 44.7719 152.605 100 152.605C155.228 152.605 200 129.052 200 100C200 70.9484 155.227 47.3953 100 47.3953C44.7719 47.3953 0 70.9484 0 100Z" fill="url(#paint0_radial_413_27)"/>
<path d="M100 148.698C153.07 148.698 196.094 126.894 196.094 100C196.094 73.1031 153.07 51.3016 100 51.3016C46.9297 51.3016 3.90625 73.1031 3.90625 100C3.90625 126.894 46.9297 148.698 100 148.698Z" fill="#777BB3"/>
<path d="M54.3312 106.038C58.6953 106.038 61.9515 105.233 64.0125 103.647C66.0531 102.075 67.4609 99.3547 68.2 95.5609C68.8875 92.0141 68.625 89.5391 67.4187 88.2016C66.1875 86.8359 63.5234 86.1438 59.5015 86.1438H52.5265L48.6625 106.038H54.3312ZM31.5203 130.542C31.3603 130.542 31.2023 130.506 31.0576 130.438C30.913 130.369 30.7853 130.27 30.6838 130.146C30.5822 130.022 30.5093 129.878 30.4702 129.723C30.4311 129.567 30.4269 129.405 30.4578 129.248L40.7031 76.5328C40.7515 76.2864 40.8839 76.0643 41.0776 75.9045C41.2713 75.7447 41.5144 75.657 41.7656 75.6562H63.85C70.7906 75.6562 75.9562 77.5406 79.2047 81.2578C82.4672 84.9922 83.4765 90.2172 82.2 96.7813C81.6797 99.4547 80.7859 101.938 79.5437 104.163C78.2506 106.451 76.6007 108.519 74.6562 110.288C72.264 112.525 69.5562 114.15 66.614 115.105C63.7203 116.048 60.0015 116.527 55.5672 116.527H46.6234L44.0703 129.664C44.0221 129.911 43.8894 130.134 43.695 130.294C43.5006 130.455 43.2566 130.542 43.0047 130.542H31.5203Z" fill="black"/>
<path d="M53.4219 87.2281H59.5016C64.3563 87.2281 66.0422 88.2938 66.6157 88.9297C67.5641 89.9828 67.7454 92.2063 67.1329 95.3547C66.4469 98.8813 65.175 101.383 63.3516 102.786C61.486 104.223 58.4485 104.952 54.3313 104.952H49.9782L53.4219 87.2281ZM63.85 74.5719H41.7672C41.2637 74.5719 40.7757 74.747 40.387 75.067C39.9982 75.3871 39.7327 75.8324 39.636 76.3266L29.3907 129.044C29.3302 129.358 29.3397 129.681 29.4187 129.991C29.4977 130.301 29.6442 130.59 29.8476 130.836C30.0511 131.083 30.3065 131.282 30.5957 131.418C30.8848 131.555 31.2006 131.626 31.5204 131.627H43.0047C43.5083 131.626 43.996 131.451 44.3845 131.13C44.773 130.81 45.0381 130.365 45.1344 129.87L47.5172 117.611H55.5657C60.1157 117.611 63.9469 117.114 66.9516 116.136C70.0407 115.133 72.8829 113.431 75.3985 111.078C77.424 109.233 79.1429 107.078 80.4907 104.692C81.7891 102.369 82.7235 99.775 83.2641 96.9875C84.6079 90.0766 83.5157 84.5438 80.0204 80.5438C76.5579 76.5797 71.1172 74.5703 63.85 74.5703V74.5719ZM47.3454 107.12H54.3313C58.961 107.12 62.4094 106.25 64.675 104.503C66.9422 102.759 68.4688 99.8469 69.2657 95.7672C70.0235 91.8484 69.6782 89.0844 68.2266 87.4734C66.7719 85.8641 63.8657 85.0578 59.5016 85.0578H51.6329L47.3454 107.12ZM63.8516 76.7375C70.4954 76.7375 75.3407 78.4828 78.3875 81.9688C81.4344 85.4563 82.35 90.3234 81.1375 96.5719C80.6344 99.1469 79.7891 101.5 78.5985 103.631C77.4047 105.766 75.8485 107.716 73.925 109.486C71.6313 111.631 69.086 113.161 66.2813 114.072C63.4782 114.984 59.9063 115.439 55.5672 115.439H45.7297L43.0063 129.455H31.5219L41.7688 76.7375H63.8516Z" fill="white"/>
<path d="M108.53 116.527C108.37 116.527 108.211 116.491 108.067 116.423C107.922 116.355 107.794 116.256 107.692 116.132C107.59 116.009 107.517 115.864 107.477 115.709C107.438 115.554 107.433 115.392 107.464 115.234L111.995 91.9094C112.428 89.6906 112.322 88.1 111.698 87.425C111.316 87.0141 110.169 86.325 106.777 86.325H98.5641L92.8672 115.65C92.8183 115.897 92.6852 116.119 92.4905 116.279C92.2958 116.438 92.0518 116.525 91.8 116.525H80.4094C80.2494 116.525 80.0913 116.49 79.9465 116.422C79.8017 116.354 79.6738 116.254 79.5718 116.131C79.4698 116.008 79.3964 115.863 79.3567 115.708C79.317 115.553 79.3121 115.392 79.3422 115.234L89.5891 62.5172C89.6376 62.2702 89.7704 62.0478 89.9648 61.8879C90.1592 61.728 90.403 61.6406 90.6547 61.6406H102.045C102.205 61.6405 102.363 61.6758 102.508 61.7439C102.653 61.812 102.781 61.9112 102.883 62.0346C102.985 62.1579 103.058 62.3022 103.098 62.4572C103.138 62.6122 103.143 62.7741 103.113 62.9313L100.641 75.6562H109.473C116.203 75.6562 120.766 76.8406 123.423 79.2828C126.131 81.7719 126.978 85.7516 125.936 91.1156L121.169 115.65C121.12 115.897 120.987 116.119 120.793 116.278C120.598 116.438 120.355 116.525 120.103 116.525L108.53 116.527Z" fill="black"/>
<path d="M102.047 60.5547H90.6546C90.1508 60.5548 89.6627 60.7301 89.2739 61.0504C88.8851 61.3708 88.6198 61.8164 88.5234 62.3109L78.2781 115.027C78.2173 115.341 78.2267 115.664 78.3055 115.974C78.3844 116.285 78.5308 116.573 78.7343 116.82C78.9378 117.067 79.1933 117.266 79.4826 117.403C79.7719 117.539 80.0878 117.611 80.4077 117.611H91.7999C92.3037 117.611 92.7918 117.436 93.1806 117.115C93.5694 116.795 93.8348 116.349 93.9312 115.855L99.4577 87.4094H106.773C110.161 87.4094 110.873 88.1328 110.9 88.1656C111.106 88.3844 111.377 89.4078 110.93 91.7031L106.398 115.027C106.338 115.341 106.347 115.665 106.426 115.975C106.505 116.285 106.651 116.574 106.855 116.821C107.059 117.068 107.314 117.267 107.604 117.403C107.893 117.54 108.21 117.611 108.53 117.611H120.105C120.608 117.61 121.096 117.435 121.484 117.115C121.873 116.794 122.138 116.349 122.234 115.855L127.001 91.3234C128.119 85.5641 127.162 81.2453 124.158 78.4844C121.289 75.85 116.486 74.5703 109.473 74.5703H101.958L104.178 63.1406C104.239 62.8263 104.23 62.5023 104.151 62.1919C104.072 61.8815 103.926 61.5924 103.722 61.3452C103.518 61.0981 103.263 60.8991 102.973 60.7624C102.683 60.6257 102.367 60.5548 102.047 60.5547ZM102.047 62.7266L99.3234 76.7391H109.473C115.859 76.7391 120.266 77.8547 122.687 80.0828C125.114 82.3109 125.839 85.9187 124.872 90.9109L120.103 115.441H108.53L113.062 92.1156C113.578 89.4625 113.387 87.6531 112.492 86.6875C111.597 85.7234 109.691 85.2406 106.776 85.2406H97.6687L91.7999 115.439H80.4062L90.6531 62.7219H102.047V62.7266Z" fill="white"/>
<path d="M143.962 106.038C148.327 106.038 151.584 105.233 153.647 103.647C155.684 102.075 157.094 99.3547 157.833 95.5609C158.52 92.0141 158.259 89.5391 157.052 88.2016C155.82 86.8359 153.156 86.1438 149.134 86.1438H142.161L138.294 106.038H143.962ZM121.156 130.542C120.996 130.542 120.838 130.507 120.693 130.439C120.548 130.371 120.419 130.271 120.318 130.147C120.216 130.024 120.142 129.879 120.103 129.723C120.064 129.568 120.06 129.406 120.091 129.248L130.336 76.5328C130.384 76.2859 130.517 76.0634 130.712 75.9035C130.906 75.7436 131.15 75.6562 131.402 75.6563H153.484C160.425 75.6563 165.591 77.5406 168.837 81.2578C172.102 84.9922 173.109 90.2172 171.833 96.7813C171.345 99.3669 170.449 101.858 169.178 104.163C167.885 106.451 166.235 108.518 164.291 110.288C161.9 112.525 159.189 114.15 156.248 115.105C153.355 116.048 149.636 116.527 145.2 116.527H136.258L133.706 129.664C133.658 129.912 133.525 130.135 133.33 130.295C133.136 130.455 132.891 130.542 132.639 130.542H121.156Z" fill="black"/>
<path d="M143.055 87.2281H149.134C153.989 87.2281 155.675 88.2938 156.247 88.9297C157.2 89.9828 157.378 92.2063 156.767 95.3547C156.08 98.8813 154.808 101.383 152.984 102.786C151.117 104.223 148.08 104.952 143.964 104.952H139.611L143.055 87.2281ZM153.483 74.5719H131.4C130.897 74.5723 130.409 74.7475 130.021 75.0675C129.632 75.3876 129.367 75.8326 129.27 76.3266L119.023 129.044C118.963 129.358 118.973 129.682 119.052 129.992C119.131 130.302 119.277 130.59 119.481 130.837C119.685 131.084 119.94 131.282 120.23 131.419C120.519 131.555 120.835 131.626 121.155 131.627H132.639C133.143 131.626 133.63 131.451 134.019 131.13C134.407 130.81 134.672 130.365 134.769 129.87L137.152 117.611H145.198C149.747 117.611 153.58 117.114 156.583 116.136C159.673 115.133 162.516 113.431 165.033 111.077C167.058 109.232 168.776 107.077 170.123 104.692C171.423 102.369 172.355 99.775 172.897 96.9875C174.241 90.0766 173.15 84.5438 169.653 80.5438C166.191 76.5797 160.752 74.5703 153.481 74.5703L153.483 74.5719ZM136.978 107.12H143.963C148.594 107.12 152.041 106.25 154.309 104.503C156.575 102.759 158.103 99.8469 158.897 95.7672C159.658 91.8484 159.313 89.0844 157.858 87.4734C156.405 85.8641 153.497 85.0578 149.134 85.0578H141.267L136.978 107.12ZM153.483 76.7375C160.125 76.7375 164.973 78.4828 168.019 81.9688C171.066 85.4563 171.983 90.3234 170.767 96.5719C170.267 99.1469 169.42 101.5 168.23 103.631C167.038 105.766 165.48 107.716 163.555 109.486C161.263 111.631 158.716 113.161 155.911 114.072C153.109 114.984 149.539 115.439 145.198 115.439H135.363L132.636 129.455H121.152L131.398 76.7375H153.483Z" fill="white"/>
<defs>
<radialGradient id="paint0_radial_413_27" cx="0" cy="0" r="1" gradientUnits="userSpaceOnUse" gradientTransform="translate(60.0406 65.8891) scale(131.315 131.315)">
<stop stop-color="#AEB2D5"/>
<stop offset="0.3" stop-color="#AEB2D5"/>
<stop offset="0.75" stop-color="#484C89"/>
<stop offset="1" stop-color="#484C89"/>
</radialGradient>
</defs>
</svg>
