<svg width="299" height="299" viewBox="0 0 299 299" fill="none" xmlns="http://www.w3.org/2000/svg">
<rect width="299" height="299" rx="149.5" fill="#1A80DF"/>
<path d="M39.8057 203.975H57.3635C57.7428 203.979 58.1105 203.843 58.3985 203.593C58.6864 203.342 58.875 202.994 58.9292 202.614L62.8433 181.971H76.487C82.1983 182.116 87.8966 181.35 93.3738 179.702C97.8114 178.214 101.863 175.733 105.228 172.443C108.251 169.688 110.785 166.427 112.721 162.803C114.636 159.257 115.994 155.43 116.747 151.46C117.935 147.299 118.139 142.912 117.342 138.655C116.546 134.398 114.771 130.392 112.162 126.961C109.139 123.846 105.48 121.439 101.442 119.911C97.4039 118.383 93.0851 117.769 88.7886 118.114H55.2387C54.8362 118.133 54.4517 118.288 54.1472 118.556C53.8428 118.824 53.6363 119.188 53.5612 119.589L38.1282 201.933C37.9573 202.409 37.9573 202.931 38.1282 203.408C38.3416 203.633 38.6058 203.802 38.898 203.901C39.1902 204 39.5017 204.025 39.8057 203.975ZM71.6782 134.107H82.8615C84.9891 133.817 87.1524 133.959 89.2257 134.523C91.299 135.088 93.2411 136.064 94.9395 137.396C96.8406 139.438 97.1761 143.294 96.1696 148.738C95.6089 153.609 93.3477 158.115 89.7951 161.442C85.3659 164.286 80.1477 165.599 74.9213 165.184H65.9747L71.6782 134.107ZM181.275 123.332C175.22 118.818 167.724 116.755 160.25 117.547H146.942L150.632 97.5851C150.741 97.355 150.798 97.1031 150.798 96.8478C150.798 96.5926 150.741 96.3406 150.632 96.1106C150.235 95.9631 149.799 95.9631 149.402 96.1106H131.844C131.465 96.1066 131.097 96.2425 130.809 96.4928C130.521 96.7431 130.333 97.0909 130.279 97.4716L114.846 179.929C114.738 180.14 114.682 180.373 114.682 180.61C114.682 180.847 114.738 181.08 114.846 181.29C114.978 181.5 115.16 181.672 115.375 181.791C115.59 181.91 115.831 181.972 116.076 181.971H133.298C133.695 181.972 134.077 181.82 134.368 181.547C134.658 181.273 134.836 180.898 134.864 180.496L143.475 134.334H155.889C160.921 134.334 162.71 135.468 163.27 136.149C163.725 137.263 163.959 138.458 163.959 139.665C163.959 140.871 163.725 142.066 163.27 143.181L156.448 179.929C156.34 180.14 156.284 180.373 156.284 180.61C156.284 180.847 156.34 181.08 156.448 181.29C156.587 181.493 156.77 181.66 156.984 181.778C157.197 181.896 157.435 181.962 157.678 181.971H175.124C175.526 181.953 175.911 181.797 176.215 181.529C176.52 181.262 176.726 180.898 176.801 180.496L183.959 141.933C185.113 138.858 185.473 135.534 185.003 132.278C184.533 129.022 183.25 125.942 181.275 123.332ZM231.823 117.547H196.819C196.614 117.532 196.407 117.558 196.211 117.624C196.015 117.689 195.834 117.794 195.679 117.931C195.523 118.068 195.395 118.235 195.303 118.422C195.211 118.609 195.156 118.813 195.142 119.022L178.814 201.933C178.713 202.165 178.66 202.416 178.66 202.67C178.66 202.924 178.713 203.176 178.814 203.408C178.965 203.589 179.153 203.735 179.366 203.833C179.579 203.931 179.811 203.979 180.044 203.975H198.273C198.671 204.008 199.067 203.885 199.379 203.632C199.69 203.379 199.895 203.015 199.951 202.614L204.089 181.971H218.291C224.186 182.102 230.066 181.338 235.737 179.702C240.62 178.325 245.132 175.843 248.934 172.443C252.056 169.696 254.702 166.437 256.762 162.803C258.713 159.262 260.108 155.436 260.9 151.46C262.119 147.295 262.328 142.893 261.511 138.627C260.693 134.362 258.872 130.36 256.203 126.961C253.041 123.713 249.228 121.192 245.022 119.567C240.816 117.943 236.315 117.254 231.823 117.547ZM238.757 148.965C238.088 153.876 235.708 158.383 232.047 161.668C227.458 164.526 222.094 165.836 216.726 165.411H207.779L213.818 134.107H225.001C229.472 133.551 233.984 134.726 237.639 137.396C239.428 139.438 239.428 143.294 238.757 148.965Z" fill="white"/>
</svg>
