<svg width="332" height="332" viewBox="0 0 332 332" fill="none" xmlns="http://www.w3.org/2000/svg">
<rect width="332" height="332" rx="166" fill="#585FC2"/>
<path d="M75.4777 209.454H89.9006C90.2122 209.457 90.5143 209.347 90.7508 209.144C90.9874 208.942 91.1423 208.66 91.1868 208.351L94.4021 191.632H105.61C110.301 191.746 114.982 191.126 119.481 189.795C123.125 188.586 126.453 186.577 129.219 183.915C131.699 181.681 133.781 179.04 135.374 176.107C136.951 173.237 138.067 170.137 138.681 166.92C139.657 163.549 139.825 159.996 139.171 156.548C138.516 153.101 137.058 149.856 134.915 147.077C132.432 144.554 129.426 142.605 126.109 141.367C122.792 140.129 119.244 139.632 115.715 139.912H88.1552C87.8246 139.926 87.5087 140.052 87.2586 140.269C87.0086 140.486 86.8389 140.781 86.7772 141.106L74.0997 207.8C73.9668 208.187 73.9668 208.608 74.0997 208.995C74.275 209.177 74.492 209.314 74.7321 209.394C74.9721 209.474 75.228 209.495 75.4777 209.454ZM101.659 152.865H110.846C112.594 152.63 114.371 152.744 116.074 153.202C117.777 153.659 119.372 154.45 120.768 155.529C122.329 157.182 122.605 160.306 121.778 164.715C121.325 168.663 119.467 172.315 116.542 175.004C112.903 177.308 108.617 178.371 104.324 178.036H96.9743L101.659 152.865ZM191.688 144.137C186.715 140.481 180.556 138.81 174.417 139.452H163.485L166.517 123.284C166.606 123.098 166.653 122.893 166.653 122.687C166.653 122.48 166.606 122.276 166.517 122.09C166.19 121.97 165.832 121.97 165.506 122.09H151.083C150.772 122.086 150.47 122.196 150.233 122.399C149.997 122.602 149.842 122.884 149.797 123.192L137.12 189.978C137.031 190.149 136.985 190.338 136.985 190.53C136.985 190.721 137.031 190.911 137.12 191.081C137.228 191.25 137.377 191.39 137.554 191.486C137.731 191.582 137.929 191.633 138.13 191.632H152.277C152.603 191.633 152.917 191.51 153.156 191.288C153.395 191.067 153.54 190.763 153.564 190.438L160.637 153.048H170.834C174.968 153.048 176.438 153.967 176.898 154.518C177.276 155.42 177.472 156.388 177.472 157.366C177.472 158.344 177.276 159.312 176.898 160.214L171.294 189.978C171.205 190.149 171.159 190.338 171.159 190.53C171.159 190.721 171.205 190.911 171.294 191.081C171.408 191.245 171.558 191.38 171.734 191.476C171.909 191.571 172.105 191.625 172.304 191.632H186.635C186.966 191.617 187.282 191.491 187.532 191.274C187.782 191.058 187.952 190.763 188.013 190.438L193.893 159.203C194.841 156.713 195.137 154.021 194.751 151.383C194.365 148.746 193.31 146.252 191.688 144.137ZM233.211 139.452H204.457C204.288 139.44 204.118 139.461 203.958 139.514C203.797 139.567 203.648 139.652 203.52 139.763C203.392 139.874 203.287 140.009 203.211 140.161C203.136 140.312 203.091 140.477 203.079 140.646L189.667 207.8C189.583 207.988 189.54 208.192 189.54 208.397C189.54 208.603 189.583 208.807 189.667 208.995C189.79 209.142 189.945 209.259 190.12 209.339C190.295 209.418 190.485 209.458 190.677 209.454H205.651C205.978 209.481 206.303 209.381 206.559 209.176C206.816 208.971 206.984 208.676 207.029 208.351L210.429 191.632H222.095C226.937 191.736 231.767 191.116 236.426 189.795C240.438 188.679 244.144 186.669 247.267 183.915C249.832 181.691 252.006 179.051 253.697 176.107C255.293 173.236 256.439 170.138 257.096 166.92C258.098 163.546 258.27 159.98 257.598 156.526C256.926 153.071 255.431 149.83 253.238 147.077C250.644 144.441 247.512 142.396 244.056 141.08C240.6 139.764 236.901 139.209 233.211 139.452ZM238.907 164.899C238.357 168.877 236.402 172.527 233.395 175.188C229.625 177.502 225.219 178.563 220.809 178.22H213.46L218.421 152.865H227.607C231.28 152.415 234.987 153.366 237.988 155.529C239.458 157.182 239.458 160.306 238.907 164.899Z" fill="white"/>
</svg>
