<svg width="332" height="332" viewBox="0 0 332 332" fill="none" xmlns="http://www.w3.org/2000/svg">
<g clip-path="url(#clip0_103_89)">
<rect width="332" height="332" rx="166" fill="#0CA6EC"/>
<rect x="-122.117" y="99.5314" width="431.23" height="201.112" transform="rotate(-30 -122.117 99.5314)" fill="#FFB600"/>
<g clip-path="url(#clip1_103_89)">
<path d="M165.132 86.0455C124.198 86.0455 126.754 103.797 126.754 103.797L126.8 122.187H165.861V127.708H111.285C111.285 127.708 85.0918 124.738 85.0918 166.039C85.0918 207.342 107.954 205.877 107.954 205.877H121.598V186.711C121.598 186.711 120.862 163.849 144.095 163.849H182.837C182.837 163.849 204.604 164.201 204.604 142.812V107.448C204.604 107.448 207.91 86.0455 165.132 86.0455ZM143.593 98.4128C144.516 98.412 145.43 98.5932 146.283 98.946C147.136 99.2989 147.911 99.8165 148.564 100.469C149.216 101.122 149.734 101.897 150.087 102.75C150.44 103.603 150.621 104.517 150.62 105.44C150.621 106.363 150.44 107.277 150.087 108.13C149.734 108.983 149.216 109.758 148.564 110.411C147.911 111.063 147.136 111.581 146.283 111.934C145.43 112.287 144.516 112.468 143.593 112.467C142.67 112.468 141.756 112.287 140.903 111.934C140.05 111.581 139.275 111.063 138.622 110.411C137.969 109.758 137.452 108.983 137.099 108.13C136.746 107.277 136.565 106.363 136.566 105.44C136.565 104.517 136.746 103.603 137.099 102.75C137.452 101.897 137.969 101.122 138.622 100.469C139.275 99.8165 140.05 99.2989 140.903 98.946C141.756 98.5932 142.67 98.412 143.593 98.4128Z" fill="white"/>
<path d="M166.294 246.448C207.227 246.448 204.671 228.697 204.671 228.697L204.626 210.307H165.563V204.786H220.14C220.14 204.786 246.333 207.756 246.333 166.454C246.333 125.152 223.471 126.617 223.471 126.617H209.827V145.782C209.827 145.782 210.562 168.644 187.33 168.644H148.588C148.588 168.644 126.821 168.292 126.821 189.681V225.047C126.821 225.047 123.516 246.448 166.293 246.448M187.832 234.082C186.909 234.083 185.995 233.902 185.142 233.549C184.289 233.196 183.514 232.678 182.861 232.026C182.208 231.373 181.691 230.598 181.338 229.745C180.985 228.892 180.804 227.978 180.805 227.055C180.804 226.132 180.985 225.218 181.338 224.365C181.69 223.512 182.208 222.736 182.861 222.084C183.513 221.431 184.288 220.913 185.141 220.56C185.994 220.208 186.909 220.026 187.832 220.027C188.755 220.026 189.669 220.208 190.522 220.56C191.375 220.913 192.15 221.431 192.803 222.084C193.455 222.736 193.973 223.511 194.326 224.364C194.679 225.217 194.86 226.131 194.859 227.054C194.86 227.977 194.679 228.892 194.326 229.744C193.973 230.597 193.455 231.372 192.803 232.025C192.15 232.678 191.375 233.195 190.522 233.548C189.669 233.901 188.755 234.083 187.832 234.082Z" fill="white"/>
</g>
</g>
<defs>
<clipPath id="clip0_103_89">
<rect width="332" height="332" rx="166" fill="white"/>
</clipPath>
<clipPath id="clip1_103_89">
<rect width="161.631" height="161" fill="white" transform="translate(85 86)"/>
</clipPath>
</defs>
</svg>
