<svg width="332" height="332" viewBox="0 0 332 332" fill="none" xmlns="http://www.w3.org/2000/svg">
<rect width="332" height="332" rx="166" fill="#F05138"/>
<path d="M234.705 195.34L235.321 192.879C244.342 156.997 222.403 114.35 185.086 92C201.489 114.144 208.665 141.004 202.309 164.379C201.693 166.429 201.078 168.48 200.258 170.53C199.438 169.915 198.413 169.3 196.978 168.685C196.978 168.685 159.866 145.72 119.678 105.327C118.652 104.302 141.207 137.518 166.632 164.379C154.535 157.613 121.113 133.213 99.7884 113.939C102.454 118.245 105.53 122.551 108.811 126.446C126.444 149.001 149.614 176.681 177.294 198.005C157.815 209.898 130.339 210.923 103.069 198.005C96.3033 194.93 89.9469 191.034 84 186.728C95.4824 205.182 113.321 221.175 135.056 230.607C160.89 241.679 186.726 241.064 205.794 230.812C205.794 230.812 205.999 230.812 205.999 230.607C206.819 230.197 207.64 229.582 208.46 229.171C217.686 224.456 235.73 219.74 245.573 238.603C248.443 242.909 253.569 218.304 234.705 195.34Z" fill="white"/>
</svg>
