<svg width="270" height="270" viewBox="0 0 270 270" fill="none" xmlns="http://www.w3.org/2000/svg">
<path d="M149.326 21.0085C149.326 21.0085 202.613 51.0844 216.559 98.8641C229.124 142.023 219.061 162.621 219.061 162.621C225.487 169.534 230.551 177.57 233.992 186.316C237.449 191.936 239.48 198.297 239.913 204.857C240.345 211.418 239.167 217.985 236.478 224C236.478 224 235.621 206.398 209.05 202.751C184.7 199.365 175.846 222.773 129.339 221.639C103.57 221.154 78.3131 214.453 55.7693 202.121C33.2254 189.788 14.0793 172.198 0 150.883C22.7221 163.12 52.4897 182.119 89.5599 179.199C126.63 176.28 134.37 165.033 134.37 165.033C92.7012 132.477 55.8181 94.361 24.7792 51.7784C53.9211 75.8544 126.107 123.769 124.427 122.551C98.023 97.0772 73.865 69.4288 52.2154 39.9054C52.2154 39.9054 160.52 127.823 169.237 127.264C172.82 119.978 191.342 82.2605 149.318 21L149.326 21.0085Z" fill="url(#paint0_linear_417_23)"/>
<defs>
<linearGradient id="paint0_linear_417_23" x1="123.767" y1="102.249" x2="119.35" y2="224.106" gradientUnits="userSpaceOnUse">
<stop stop-color="#F88535"/>
<stop offset="1" stop-color="#FD2221"/>
</linearGradient>
</defs>
</svg>
