<svg width="248" height="248" viewBox="0 0 248 248" fill="none" xmlns="http://www.w3.org/2000/svg">
<path d="M0 124V248H248V0H0V124ZM199.848 114.08C205.788 115.458 211.187 118.565 215.363 123.008C217.662 125.402 219.661 128.067 221.315 130.944C221.315 131.261 210.602 138.503 204.074 142.55C203.836 142.709 202.884 141.677 201.832 140.11C200.641 138.054 198.948 136.333 196.911 135.109C194.875 133.884 192.561 133.195 190.186 133.107C182.667 132.591 177.826 136.539 177.866 143.027C177.805 144.642 178.175 146.244 178.937 147.669C180.584 151.101 183.659 153.145 193.301 157.311C211.058 164.95 218.657 169.989 223.379 177.151C228.656 185.087 229.827 197.904 226.255 207.388C222.287 217.704 212.566 224.708 198.817 227.029C192.537 227.749 186.192 227.682 179.929 226.831C170.33 225.248 161.487 220.64 154.692 213.677C152.411 211.157 147.967 204.59 148.244 204.114C148.967 203.574 149.73 203.09 150.526 202.666L159.712 197.587L166.835 193.46L168.323 195.662C170.835 199.254 174.03 202.314 177.727 204.669C185.663 208.836 196.495 208.26 201.852 203.439C203.651 201.673 204.773 199.331 205.023 196.823C205.273 194.314 204.635 191.797 203.221 189.71C201.237 186.952 197.269 184.631 186.179 179.79C173.382 174.275 167.866 170.862 162.827 165.426C159.682 161.838 157.359 157.606 156.022 153.026C155.025 147.793 154.878 142.434 155.585 137.154C158.224 124.794 167.489 116.163 181.02 113.604C187.287 112.83 193.634 113.004 199.848 114.12V114.08ZM141.638 124.476V134.634H109.437V226.355H86.6016V134.614H54.3219V124.694C54.2207 121.274 54.3001 117.85 54.56 114.437C54.7187 114.259 74.4 114.259 98.208 114.259H141.519L141.638 124.476Z" fill="#007ACC"/>
</svg>
