<svg width="332" height="332" viewBox="0 0 332 332" fill="none" xmlns="http://www.w3.org/2000/svg">
<rect width="332" height="332" rx="166" fill="#007ACC"/>
<path d="M88.0708 124.31L88 133.474H117.125V216.233H137.727V133.474H166.852V124.487C166.852 119.514 166.746 115.359 166.604 115.252C166.497 115.111 148.773 115.039 127.284 115.075L88.1774 115.181L88.0708 124.31ZM219.148 114.921C224.831 116.342 229.165 118.864 233.143 122.984C235.203 125.186 238.257 129.2 238.506 130.159C238.577 130.443 228.845 136.979 222.949 140.637C222.736 140.78 221.882 139.856 220.924 138.435C218.047 134.244 215.028 132.432 210.41 132.113C203.626 131.65 199.257 135.203 199.293 141.135C199.293 142.875 199.541 143.905 200.252 145.326C201.743 148.416 204.514 150.263 213.217 154.028C229.235 160.919 236.09 165.465 240.353 171.929C245.113 179.14 246.178 190.648 242.946 199.208C239.394 208.514 230.585 214.836 218.188 216.933C214.353 217.607 205.26 217.501 201.14 216.755C192.153 215.156 183.629 210.717 178.372 204.892C176.312 202.618 172.298 196.687 172.547 196.26C172.653 196.118 173.577 195.55 174.606 194.946C175.601 194.378 179.367 192.211 182.918 190.151L189.347 186.421L190.697 188.411C192.58 191.287 196.699 195.23 199.186 196.544C206.325 200.31 216.129 199.777 220.959 195.444C223.02 193.561 223.872 191.607 223.872 188.73C223.872 186.137 223.552 185.001 222.202 183.047C220.462 180.561 216.911 178.465 206.822 174.096C195.279 169.123 190.306 166.033 185.76 161.131C183.132 158.291 180.645 153.743 179.615 149.943C178.763 146.782 178.55 138.861 179.224 135.664C181.604 124.512 190.022 116.733 202.17 114.424C206.113 113.678 215.276 113.962 219.148 114.921Z" fill="white"/>
</svg>
